<?xml version="1.0" encoding="UTF-8" standalone="no"?>
<!-- Created with Inkscape (http://www.inkscape.org/) -->

<svg
   xmlns:dc="http://purl.org/dc/elements/1.1/"
   xmlns:cc="http://creativecommons.org/ns#"
   xmlns:rdf="http://www.w3.org/1999/02/22-rdf-syntax-ns#"
   xmlns:svg="http://www.w3.org/2000/svg"
   xmlns="http://www.w3.org/2000/svg"
   xmlns:xlink="http://www.w3.org/1999/xlink"
   xmlns:sodipodi="http://sodipodi.sourceforge.net/DTD/sodipodi-0.dtd"
   xmlns:inkscape="http://www.inkscape.org/namespaces/inkscape"
   version="1.1"
   id="svg815"
   xml:space="preserve"
   width="343.93732"
   height="230.55067"
   viewBox="0 0 343.93732 230.55067"
   sodipodi:docname="rabbithole-help-card-noguides.svg"
   inkscape:version="0.92.4 (5da689c313, 2019-01-14)"
   inkscape:export-filename="C:\Users\Jorn\Desktop\rabbithole-help-card2.png"
   inkscape:export-xdpi="600.10938"
   inkscape:export-ydpi="600.10938"><metadata
     id="metadata821"><rdf:RDF><cc:Work
         rdf:about=""><dc:format>image/svg+xml</dc:format><dc:type
           rdf:resource="http://purl.org/dc/dcmitype/StillImage" /><dc:title /></cc:Work></rdf:RDF></metadata><defs
     id="defs819"><linearGradient
       id="linearGradient1416"
       inkscape:collect="always"><stop
         id="stop1412"
         offset="0"
         style="stop-color:#267fff;stop-opacity:1" /><stop
         id="stop1414"
         offset="1"
         style="stop-color:#4f4fff;stop-opacity:1" /></linearGradient><linearGradient
       inkscape:collect="always"
       id="linearGradient1384"><stop
         style="stop-color:#d40000;stop-opacity:1;"
         offset="0"
         id="stop1380" /><stop
         style="stop-color:#ff8181;stop-opacity:1"
         offset="1"
         id="stop1382" /></linearGradient><linearGradient
       id="linearGradient1428"
       inkscape:collect="always"><stop
         id="stop1424"
         offset="0"
         style="stop-color:#1a1a1a;stop-opacity:1" /><stop
         id="stop1426"
         offset="1"
         style="stop-color:#666666;stop-opacity:1" /></linearGradient><linearGradient
       inkscape:collect="always"
       id="linearGradient1387"><stop
         style="stop-color:#271e1e;stop-opacity:1;"
         offset="0"
         id="stop1383" /><stop
         style="stop-color:#271e1e;stop-opacity:0;"
         offset="1"
         id="stop1385" /></linearGradient><linearGradient
       inkscape:collect="always"
       id="linearGradient1139"><stop
         style="stop-color:#271e1e;stop-opacity:1"
         offset="0"
         id="stop1135" /><stop
         style="stop-color:#008000;stop-opacity:0;"
         offset="1"
         id="stop1137" /></linearGradient><linearGradient
       inkscape:collect="always"
       xlink:href="#linearGradient1139"
       id="linearGradient1141"
       x1="173.8481"
       y1="147.3882"
       x2="173.77206"
       y2="105.80637"
       gradientUnits="userSpaceOnUse"
       gradientTransform="matrix(1,0,0,1.2788991,0,-64.300372)" /><linearGradient
       inkscape:collect="always"
       xlink:href="#linearGradient1387"
       id="linearGradient1389"
       x1="130.75874"
       y1="193.07272"
       x2="256.73457"
       y2="193.07272"
       gradientUnits="userSpaceOnUse" /><clipPath
       clipPathUnits="userSpaceOnUse"
       id="clipPath1226"><ellipse
         style="display:inline;opacity:1;fill:url(#radialGradient1230);fill-opacity:1;stroke:none;stroke-width:1.40059245;stroke-miterlimit:4;stroke-dasharray:2.80118503, 1.40059252, 0.70029626, 1.40059252;stroke-dashoffset:0;stroke-opacity:0.48469388;paint-order:markers stroke fill"
         id="ellipse1228"
         cx="77.89653"
         cy="104.90351"
         rx="45.8223"
         ry="12.241359" /></clipPath><radialGradient
       inkscape:collect="always"
       xlink:href="#linearGradient1428"
       id="radialGradient1230"
       gradientUnits="userSpaceOnUse"
       gradientTransform="matrix(-0.03035651,-2.5988321,6.6298827,-0.10364301,-762.46822,273.25914)"
       cx="54.244232"
       cy="126.63061"
       fx="54.244232"
       fy="126.63061"
       r="16.46806" /><clipPath
       clipPathUnits="userSpaceOnUse"
       id="clipPath1226-2"><ellipse
         style="display:inline;opacity:1;fill:url(#radialGradient1230);fill-opacity:1;stroke:none;stroke-width:1.40059245;stroke-miterlimit:4;stroke-dasharray:2.80118503, 1.40059252, 0.70029626, 1.40059252;stroke-dashoffset:0;stroke-opacity:0.48469388;paint-order:markers stroke fill"
         id="ellipse1228-5"
         cx="77.89653"
         cy="104.90351"
         rx="45.8223"
         ry="12.241359" /></clipPath><radialGradient
       inkscape:collect="always"
       xlink:href="#linearGradient1416"
       id="radialGradient1386"
       cx="261.15454"
       cy="102.94206"
       fx="261.15454"
       fy="102.94206"
       r="34.673125"
       gradientTransform="matrix(-1.572028,0.17383942,0.05389379,0.56050495,666.24126,0.72543962)"
       gradientUnits="userSpaceOnUse" /><radialGradient
       inkscape:collect="always"
       xlink:href="#linearGradient1384"
       id="radialGradient1386-5"
       cx="261.15454"
       cy="102.94206"
       fx="261.15454"
       fy="102.94206"
       r="34.673126"
       gradientTransform="matrix(1.2763586,0.0699192,-0.02604701,0.57994346,-247.63696,27.905733)"
       gradientUnits="userSpaceOnUse" /><clipPath
       clipPathUnits="userSpaceOnUse"
       id="clipPath1452"><ellipse
         style="display:inline;opacity:1;fill:#000000;fill-opacity:1;stroke:none;stroke-width:1.40059245;stroke-miterlimit:4;stroke-dasharray:2.80118503, 1.40059252, 0.70029626, 1.40059252;stroke-dashoffset:0;stroke-opacity:0.48469388;paint-order:markers stroke fill"
         id="ellipse1454"
         cx="83.791649"
         cy="103.21869"
         rx="45.8223"
         ry="12.241359" /></clipPath><clipPath
       clipPathUnits="userSpaceOnUse"
       id="clipPath1480"><ellipse
         style="display:inline;opacity:1;fill:#000000;fill-opacity:1;stroke:none;stroke-width:1.40059245;stroke-miterlimit:4;stroke-dasharray:2.80118503, 1.40059252, 0.70029626, 1.40059252;stroke-dashoffset:0;stroke-opacity:0.48469388;paint-order:markers stroke fill"
         id="ellipse1482"
         cx="261.39862"
         cy="101.96573"
         rx="45.8223"
         ry="12.241359" /></clipPath></defs><sodipodi:namedview
     pagecolor="#ffffff"
     bordercolor="#666666"
     borderopacity="1"
     objecttolerance="10"
     gridtolerance="10"
     guidetolerance="10"
     inkscape:pageopacity="0"
     inkscape:pageshadow="2"
     inkscape:window-width="1504"
     inkscape:window-height="844"
     id="namedview817"
     showgrid="false"
     inkscape:zoom="1.1286988"
     inkscape:cx="80.411701"
     inkscape:cy="153.73501"
     inkscape:window-x="275"
     inkscape:window-y="836"
     inkscape:window-maximized="0"
     inkscape:current-layer="layer9"
     showguides="true"
     inkscape:guide-bbox="true" /><g
     inkscape:groupmode="layer"
     id="layer1"
     inkscape:label="holes"
     style="display:inline;opacity:1"
     sodipodi:insensitive="true"><ellipse
       style="display:inline;opacity:1;fill:#3e3eff;fill-opacity:1;stroke:#000000;stroke-width:3.20099998;stroke-miterlimit:4;stroke-dasharray:none;stroke-dashoffset:0;stroke-opacity:1;paint-order:markers stroke fill"
       id="path855-8-2-3-8"
       cx="261.60257"
       cy="101.91368"
       rx="45.8223"
       ry="12.241359" /><ellipse
       style="display:inline;opacity:1;fill:#ff5555;fill-opacity:1;stroke:#000000;stroke-width:3.20099998;stroke-miterlimit:4;stroke-dasharray:none;stroke-dashoffset:0;stroke-opacity:1;paint-order:markers stroke fill"
       id="path855-8-2-3-8-7"
       cx="83.719833"
       cy="103.47988"
       rx="45.8223"
       ry="12.241359" /></g><g
     inkscape:groupmode="layer"
     id="layer9"
     inkscape:label="vortex"
     style="display:inline"><path
       style="fill:url(#radialGradient1386);fill-opacity:1;stroke:#000000;stroke-width:3;stroke-miterlimit:4;stroke-dasharray:none;stroke-opacity:1;paint-order:markers stroke fill"
       d="m 264.21788,117.00903 c 3.54908,-0.0957 6.06971,-0.23328 9.00295,-0.49153 11.04458,-0.97235 20.5873,-3.43513 25.75297,-6.64626 2.90041,-1.80298 4.2131,-3.41325 4.39839,-5.39544 0.11925,-1.27516 -0.25059,-2.37395 -1.20124,-3.56941 -2.77622,-3.491187 -10.08181,-6.510681 -20.27697,-8.380708 -10.81417,-1.983559 -23.5979,-2.43381 -35.5001,-1.250327 -8.67198,0.862285 -16.18538,2.613262 -21.28253,4.95983 -3.16799,1.45843 -5.11544,3.023716 -5.79611,4.658665 -0.73319,1.76104 0.50891,3.61908 2.19362,3.28144 0.51187,-0.10258 1.14694,-0.50395 2.1849,-1.38082 0.50877,-0.42981 0.95008,-0.7738 0.98067,-0.76444 0.0306,0.009 -0.0209,0.2694 -0.11438,0.57786 -0.20273,0.66877 -0.089,1.89621 0.23844,2.57422 1.1951,2.47433 5.07709,4.84285 10.78999,6.58327 6.37959,1.94356 14.69381,3.14471 23.66549,3.41902 2.18098,0.0666 6.82336,0.0304 8.88371,-0.0696 6.58619,-0.31937 12.81878,-1.154 17.77601,-2.38049 5.57375,-1.379 9.99154,-3.47827 11.79895,-5.60669 0.75329,-0.88707 0.88432,-1.22669 0.88148,-2.28482 -0.002,-0.90956 -0.0374,-1.04573 -0.40659,-1.57956 -0.79061,-1.14351 -2.15458,-1.84032 -3.06014,-1.56334 -0.36806,0.11245 -0.65714,0.42876 -1.17945,1.28998 -0.23709,0.39093 -0.45681,0.71867 -0.48826,0.72827 -0.0315,0.009 -0.0978,-0.1813 -0.14747,-0.4243 -0.62495,-3.05822 -6.68975,-6.10458 -15.45492,-7.763 -15.21264,-2.878336 -34.84634,-1.65448 -44.50485,2.774187 -4.27486,1.960133 -5.98665,4.484913 -4.49391,6.628253 0.75178,1.07942 2.40294,2.11691 3.70947,2.33079 0.7856,0.12867 1.03042,-0.10085 1.03329,-0.96891 0.001,-0.37578 0.0537,-0.70796 0.11645,-0.7382 0.0682,-0.0329 0.22289,0.0764 0.38422,0.27146 0.93503,1.13049 3.09633,2.39509 5.74103,3.35912 4.22087,1.53863 9.85808,2.55418 16.6092,2.99217 1.79514,0.11656 2.16375,0.1249 5.54689,0.12606 2.83653,0.001 3.9293,-0.016 5.02918,-0.0781 7.70761,-0.43538 14.31677,-1.73781 18.51132,-3.64794 3.13398,-1.42717 4.72388,-3.11758 4.51478,-4.8002 -0.10004,-0.80518 -0.38717,-1.31159 -1.13208,-1.99675 -1.15667,-1.06387 -3.14417,-2.007688 -4.67815,-2.221466 -0.33103,-0.04608 -0.41489,-0.04159 -0.5914,0.03222 -0.27706,0.115919 -0.25802,0.311917 0.0902,0.928386 0.16163,0.28618 0.29431,0.54937 0.29485,0.58487 5.9e-4,0.0354 -0.30218,-0.12593 -0.67271,-0.35877 -3.48452,-2.189891 -10.07442,-3.713084 -18.11178,-4.18639 -1.72546,-0.101666 -5.52246,-0.137627 -7.34166,-0.06971 -10.80839,0.403857 -19.14152,2.698294 -21.37341,5.88494 -0.44711,0.63839 -0.4879,2.02132 -0.078,2.64514 0.82799,1.26015 2.70955,2.37987 5.21902,3.10584 0.98843,0.28594 1.69735,0.41437 2.17308,0.39365 0.61356,-0.0267 0.52452,-0.17967 -0.75882,-1.30353 -0.0427,-0.0372 0.34142,0.1051 0.85343,0.31672 4.39383,1.81512 11.92151,2.86355 19.16561,2.6693 3.25736,-0.0873 5.40391,-0.26984 8.27932,-0.70388 7.97588,-1.20393 12.67107,-3.81199 11.60409,-6.44575 -0.57539,-1.42035 -2.80597,-2.76977 -5.86012,-3.545186 -1.68233,-0.427128 -3.31862,-0.638723 -3.54483,-0.458413 -0.0887,0.07073 0.48593,0.464999 1.2872,0.882938 l 0.47708,0.248861 -1.18355,-0.344819 c -8.30951,-2.420829 -22.0481,-1.981721 -28.63829,0.915319 -1.24002,0.54509 -2.44335,1.39173 -2.9124,2.04911 -1.17366,1.64497 0.50573,3.52265 4.23095,4.73053 1.03387,0.33523 2.69458,0.70852 3.93242,0.88394 0.99912,0.14158 2.03019,0.1934 2.19781,0.11038 0.15917,-0.0787 -0.0282,-0.18271 -0.99371,-0.55124 -0.44004,-0.16799 -0.77062,-0.30542 -0.7346,-0.30542 0.036,0 0.42161,0.0735 0.85688,0.16319 3.30378,0.68116 7.80305,0.97292 11.75426,0.76215 6.49692,-0.34656 11.5859,-1.74722 13.32835,-3.66845 0.36954,-0.40747 0.40527,-0.51594 0.408,-1.23835 0.002,-0.68841 -0.0417,-0.84198 -0.33927,-1.17636 -0.40628,-0.45651 -1.37075,-1.09782 -2.25373,-1.49859 -0.83483,-0.37891 -2.63564,-0.9244 -3.83841,-1.162688 -1.23055,-0.243804 -3.09158,-0.46419 -4.17553,-0.494498 -0.72758,-0.02041 -0.86211,-0.01156 -0.95147,0.05918 -0.0805,0.06419 0.12826,0.148485 0.92135,0.372147 0.98763,0.278519 1.00361,0.286329 0.43377,0.211812 -1.04082,-0.136099 -2.67126,-0.286448 -3.70137,-0.341327 -1.41845,-0.07548 -4.42978,-0.02978 -5.91325,0.08986 -4.95212,0.399534 -9.01076,1.643534 -10.34609,3.171124 -0.39258,0.4491 -0.47466,1.38737 -0.16264,1.8587 0.95234,1.43852 4.29343,2.62263 8.51185,3.01669 1.81793,0.16981 3.41452,0.17002 3.52134,4.6e-4 0.0299,-0.0474 -0.29625,-0.13458 -0.96146,-0.25667 -1.1132,-0.20429 -1.10305,-0.21098 0.17659,-0.11656 1.189,0.0877 3.81972,0.0853 5.11617,-0.005 4.88761,-0.34003 8.65004,-1.50655 9.68767,-3.00364 0.45204,-0.65218 0.17176,-1.51612 -0.70039,-2.15883 -1.18425,-0.87274 -3.91154,-1.66251 -6.78156,-1.96379 -1.78451,-0.18734 -4.98156,-0.16255 -4.8524,0.0377 0.0248,0.0384 0.41119,0.11268 0.85865,0.16532 l 0.81354,0.0953 -1.47918,0.0286 c -0.81354,0.0156 -1.88471,0.0612 -2.38036,0.1012 -4.08011,0.32858 -7.17893,1.35187 -7.98208,2.63582 -0.66232,1.05884 0.44759,2.14653 2.93991,2.88113 1.6959,0.49984 3.82086,0.79412 6.02387,0.83423 2.69143,0.0491 4.80958,-0.2742 2.46363,-0.37591 l -0.76913,-0.0333 1.25729,-0.0829 c 5.20371,-0.34313 8.46671,-1.82121 7.53446,-3.41295 -0.0864,-0.14764 -0.45764,-0.45904 -0.8248,-0.69196 -0.82943,-0.52621 -2.11542,-0.94197 -3.67735,-1.18892 -1.26981,-0.20076 -1.77628,-0.25085 -3.11787,-0.30831 -1.60027,-0.0686 -3.94078,0.0859 -4.51629,0.29802 -0.2337,0.086 -0.13593,0.10694 0.70457,0.15009 0.39439,0.0201 0.59093,0.0393 0.43675,0.0422 -0.15417,0.002 -0.77912,0.0787 -1.38876,0.16839 -3.22992,0.47518 -5.14409,1.66118 -4.41021,2.73255 0.72037,1.05162 3.20439,1.78754 6.57325,1.94742 1.71993,0.0817 3.84005,-0.0818 4.86803,-0.37517 0.50773,-0.1449 0.41353,-0.18538 -0.35636,-0.1531 l -0.68917,0.0288 0.87406,-0.1737 c 2.18884,-0.43496 3.3357,-1.07353 3.34189,-1.86075 0.006,-0.85473 -1.50179,-1.60103 -3.94809,-1.95329 -2.25915,-0.32531 -5.23264,-0.21041 -6.77667,0.26188 -0.29927,0.0917 -0.54412,0.18339 -0.54412,0.20413 0,0.0497 0.33699,0.0479 0.78245,-0.003 0.25754,-0.0301 0.13404,0.0269 -0.44025,0.20252 -0.48963,0.14977 -0.98166,0.36262 -1.2728,0.55062 -0.44471,0.28716 -0.47461,0.33784 -0.47461,0.80416 0,0.46372 0.0314,0.51776 0.46007,0.79177 0.67408,0.43088 1.49971,0.69099 2.83308,0.89256 1.07945,0.16318 1.1943,0.17069 2.61586,0.17069 1.70993,0 2.42678,-0.0752 3.47443,-0.36478 1.01504,-0.2805 1.28237,-0.51751 0.42547,-0.37724 -0.34731,0.0569 -0.3198,0.037 0.33563,-0.24181 0.57553,-0.24484 0.93356,-0.69036 0.84031,-1.04567 -0.24661,-0.93973 -3.1781,-1.65213 -6.07997,-1.47751 -0.49711,0.0299 -1.15783,0.094 -1.46827,0.14248 -0.69681,0.10878 -1.63602,0.39927 -1.88498,0.58312 -0.20182,0.14904 -0.10016,0.22908 0.18146,0.14292 0.24113,-0.0739 0.48655,-0.0678 0.28388,0.008 -0.34534,0.12722 -0.6318,0.47196 -0.63477,0.76376 -0.004,0.3609 0.42634,0.69047 1.27656,0.97831 1.6966,0.5744 4.74648,0.58596 6.43884,0.0243 0.62213,-0.20644 0.88681,-0.36308 0.88681,-0.5248 0,-0.0894 -0.0152,-0.0904 -0.2753,-0.0184 -0.26734,0.074 -0.26935,0.0693 -0.0699,-0.16265 0.23372,-0.27182 0.15582,-0.50499 -0.26875,-0.80441 -1.19439,-0.8423 -5.12043,-0.99122 -6.73996,-0.25566 -0.46331,0.21043 -0.76366,0.50243 -0.57588,0.55986 0.0513,0.0157 0.17641,-0.007 0.27806,-0.0488 0.15557,-0.0651 0.17621,-0.0441 0.13053,0.13142 -0.14631,0.56267 1.13742,1.06963 2.97564,1.17511 0.73853,0.0425 1.89176,-0.0493 2.65689,-0.21105 l 0.63138,-0.13353 -0.5177,0.13963 c -1.03284,0.27858 -2.83201,0.34042 -4.10859,0.14122 -0.65698,-0.10246 -1.4526,-0.36095 -1.74621,-0.56719 -0.10904,-0.0766 -0.20552,-0.10878 -0.21441,-0.0713 -0.0463,0.19411 -0.27174,-0.15288 -0.28083,-0.43225 -0.0232,-0.7131 1.60039,-1.20581 3.99566,-1.21253 0.81686,-0.002 1.14301,0.0217 1.94685,0.14265 1.3729,0.20677 2.12985,0.53494 2.30225,0.99823 l 0.0949,0.25506 0.10223,-0.18097 c 0.0723,-0.128 0.0943,-0.0751 0.0752,0.18097 -0.0315,0.42154 -0.36936,0.67878 -1.24512,0.94785 -1.63317,0.5017 -4.08527,0.56478 -6.08422,0.15647 -1.40902,-0.28778 -2.13362,-0.71522 -2.14063,-1.26266 -0.002,-0.16177 -0.0295,-0.24321 -0.0609,-0.18098 -0.10247,0.20269 -0.30672,0.19749 -0.22937,-0.007 0.25879,-0.68038 1.73191,-1.23209 3.78876,-1.41892 0.95165,-0.0864 1.73958,-0.0864 2.8252,9e-5 1.13356,0.0903 1.97936,0.24695 2.82288,0.52279 1.16074,0.37954 1.66435,0.88281 1.39842,1.39737 -0.14769,0.28575 -0.0734,0.35065 0.15066,0.1316 0.14858,-0.14523 0.15193,-0.14295 0.0755,0.0515 -0.19637,0.4995 -1.60065,1.06916 -3.23315,1.31157 -1.82157,0.27046 -3.61487,0.26399 -5.4972,-0.0198 -3.26515,-0.49231 -4.56511,-1.7073 -2.87061,-2.68302 0.52425,-0.30187 0.2839,-0.26308 -0.30027,0.0485 -0.58324,0.31105 -0.56513,0.18611 0.0263,-0.18135 1.29323,-0.8035 4.43918,-1.30006 7.31369,-1.15437 2.61779,0.13268 5.01746,0.77869 5.91588,1.59262 0.19601,0.17757 0.27153,0.37196 0.26364,0.67865 -0.0153,0.59447 -0.48795,0.97049 -1.93365,1.5383 l -0.40318,0.15836 0.55767,-0.15836 c 0.30672,-0.0872 0.75303,-0.24837 0.99183,-0.35839 0.55672,-0.25652 0.56028,-0.18514 0.005,0.10947 -0.95166,0.50547 -2.36773,0.86931 -4.26325,1.0954 -0.85839,0.10235 -1.23729,0.12004 -2.62997,0.12273 -1.33779,0.002 -1.80504,-0.0156 -2.62793,-0.10245 -1.83219,-0.19323 -3.21496,-0.5386 -4.39821,-1.09858 -0.82166,-0.38886 -1.19798,-0.75702 -1.28932,-1.26134 -0.13902,-0.76754 0.62172,-1.3788 2.39676,-1.92587 0.57059,-0.17587 1.20384,-0.35492 1.40723,-0.39796 0.20338,-0.043 0.0733,-0.0316 -0.28902,0.0257 -0.36236,0.0572 -1.07551,0.228 -1.5848,0.3797 -1.01461,0.30223 -1.03083,0.29443 -0.13372,-0.0642 1.15902,-0.46326 3.2246,-0.85282 5.20071,-0.98087 3.1268,-0.20261 6.12536,0.0653 8.34436,0.74573 1.70819,0.52374 2.59856,1.06929 2.9845,1.82864 0.63881,1.25683 -2.05822,2.64409 -6.09076,3.13287 -0.4793,0.0581 -0.48478,0.0608 -0.0739,0.0366 0.70026,-0.0411 2.4993,-0.32782 3.18692,-0.50786 0.47099,-0.12337 0.58319,-0.1391 0.45106,-0.0636 -0.21263,0.12156 -1.58651,0.46194 -2.60257,0.64488 -1.95989,0.35284 -5.07873,0.49459 -7.41022,0.3368 -5.09631,-0.34494 -8.48619,-1.6928 -8.48982,-3.37566 -0.001,-0.58895 0.34357,-1.03606 1.17585,-1.52458 1.5013,-0.88123 4.13701,-1.52497 7.25439,-1.77183 0.61016,-0.0482 0.93697,-0.0889 0.72627,-0.0904 -0.71702,-0.005 -2.67143,0.1763 -3.84533,0.35599 -0.64379,0.0986 -1.17054,0.17316 -1.17054,0.16578 0,-0.0443 1.93121,-0.41586 2.75895,-0.53065 2.22365,-0.30841 5.12464,-0.402041 7.56918,-0.24433 3.55441,0.22933 6.7281,0.96658 8.32412,1.93363 0.85224,0.51642 1.20005,0.98825 1.27743,1.73302 0.0838,0.80569 -0.19488,1.26013 -1.13723,1.85499 -2.05492,1.29718 -6.05734,2.10935 -11.0268,2.23756 l -1.33126,0.0343 1.40522,0.007 c 1.67317,0.008 2.86618,-0.0466 4.28078,-0.19287 0.57433,-0.0594 1.04424,-0.0986 1.04424,-0.0871 0,0.045 -2.2349,0.33382 -3.34367,0.43204 -1.0102,0.0896 -1.48723,0.10292 -3.53448,0.10016 -2.82024,-0.003 -3.91312,-0.0786 -6.21252,-0.42421 -4.04036,-0.60727 -6.9292,-1.7779 -7.62005,-3.08781 -0.27063,-0.51314 -0.11803,-1.54036 0.30094,-2.02589 1.4483,-1.67826 5.25576,-2.821872 10.94308,-3.286819 1.02221,-0.08358 4.67336,-0.115534 6.13856,-0.05379 0.59619,0.02515 0.5245,0.01361 -0.36979,-0.05918 -1.20402,-0.09807 -4.06494,-0.135497 -5.69481,-0.07458 l -0.88751,0.03325 0.56728,-0.06612 c 1.8059,-0.210324 5.26383,-0.271416 7.61988,-0.134636 8.08106,0.469135 13.8711,2.793005 13.05952,5.241565 -0.74842,2.25802 -4.86491,3.92632 -11.43774,4.63542 -3.44839,0.37202 -7.69111,0.38523 -11.00855,0.0342 -1.67897,-0.17763 -1.64159,-0.17463 -1.24102,-0.0991 1.42489,0.26907 4.39476,0.50656 6.9521,0.55593 1.43606,0.0276 1.59737,0.038 1.03543,0.0654 -1.20093,0.0586 -4.35577,0.0413 -5.71177,-0.0309 -1.54636,-0.0826 -3.52342,-0.27783 -4.82326,-0.47656 -2.49289,-0.38117 -5.10116,-1.04596 -6.79908,-1.73295 -1.24741,-0.50469 -2.53165,-1.3318 -3.10754,-2.00131 -0.43226,-0.50255 -0.4632,-0.59077 -0.47405,-1.35202 -0.0109,-0.75398 0.019,-0.84959 0.40101,-1.28885 1.37616,-1.58225 4.21748,-2.904459 7.97706,-3.712042 1.26436,-0.271583 3.63458,-0.631075 5.17843,-0.785378 3.68546,-0.368375 7.91403,-0.384999 11.76191,-0.04621 1.2559,0.110523 4.05544,0.499456 5.02699,0.698303 0.75245,0.153995 0.56297,0.07086 -0.2412,-0.105778 -2.35507,-0.51753 -5.63275,-0.928525 -8.53541,-1.070311 -0.76011,-0.0371 -0.66136,-0.04043 0.75212,-0.02516 7.2913,0.07869 14.14893,1.486274 17.64117,3.620956 2.34407,1.43284 2.84371,3.31548 1.26479,4.76566 -1.64421,1.51015 -5.27106,2.99042 -9.44044,3.85304 -8.28538,1.71423 -20.08854,1.43017 -27.58063,-0.66374 -0.86252,-0.24106 -1.00902,-0.27008 -0.6684,-0.13238 0.63306,0.2559 2.88781,0.85207 4.35278,1.1509 1.52763,0.31163 3.10273,0.55318 4.93183,0.75638 1.62692,0.1807 1.45053,0.19523 -0.55946,0.0459 -6.96381,-0.51681 -12.63571,-1.91944 -15.94715,-3.94359 -1.94344,-1.18795 -2.85236,-2.63064 -2.46719,-3.91608 0.56513,-1.88591 2.66181,-3.258106 7.16758,-4.690846 6.07714,-1.932403 13.52285,-2.776575 21.82373,-2.474299 3.15305,0.114761 5.60189,0.336951 8.50432,0.771463 3.59224,0.537775 6.88458,1.361407 9.21119,2.304334 1.20797,0.489584 1.2094,0.450777 0.004,-0.100127 -2.30663,-1.05388 -5.5379,-1.96234 -9.06444,-2.54842 -0.73357,-0.121953 -1.28535,-0.221981 -1.22619,-0.222378 0.30757,-0.0025 2.28348,0.259181 3.93689,0.520482 7.51272,1.187321 12.78126,3.394358 14.44251,6.050111 1.26791,2.02696 -0.15519,4.31686 -3.80225,6.11822 -1.93223,0.95438 -5.48007,2.01825 -9.28575,2.78445 -3.03086,0.61023 -7.44402,1.17952 -10.8719,1.40248 -2.10654,0.13703 -6.56909,0.17243 -9.05918,0.0719 -10.00314,-0.40407 -18.33443,-2.18684 -23.06715,-4.93603 -0.42838,-0.24885 -0.7803,-0.43896 -0.78205,-0.42251 -0.005,0.046 0.93217,0.70391 1.47165,1.03331 2.03365,1.24169 5.00669,2.32043 8.95365,3.24875 0.66657,0.15678 -0.0289,0.0471 -1.47948,-0.23332 -5.30162,-1.02492 -9.52925,-2.52314 -12.02784,-4.26257 -3.47198,-2.41704 -3.71063,-5.12117 -0.66856,-7.575436 1.75397,-1.415064 5.26103,-2.996859 8.41588,-3.795805 5.58118,-1.413397 11.37574,-2.257403 18.2466,-2.657704 2.75837,-0.160708 6.82358,-0.197127 9.56346,-0.08576 10.05908,0.409133 18.95185,2.108518 24.51205,4.68419 1.70882,0.791578 3.56781,2.013925 4.33108,2.847795 0.45478,0.49682 0.39774,0.22428 -0.0722,-0.3451 -1.4283,-1.730514 -3.91545,-3.171138 -7.79661,-4.516049 l -1.30567,-0.452446 1.12239,0.283599 c 2.34255,0.591909 5.12797,1.546878 6.89285,2.36318 6.14859,2.843866 7.72164,6.538426 4.17892,9.814856 -4.59566,4.25025 -17.07656,7.36162 -31.87351,7.94579 -2.5542,0.10074 -7.06723,0.10143 -9.54064,10e-4 -12.03008,-0.4872 -21.96466,-2.35991 -28.58004,-5.38745 -3.43974,-1.5742 -5.55331,-3.32833 -6.40578,-5.31639 l -0.18431,-0.42982 -0.017,0.38486 c -0.0321,0.72415 0.57627,1.95561 1.40808,2.85011 1.42917,1.5368 4.09953,3.1027 7.52596,4.41319 0.64788,0.24779 1.98216,0.69485 2.9651,0.99347 6.30567,1.91562 14.38192,3.12738 23.2141,3.48306 1.72875,0.0696 6.57783,0.12285 7.91356,0.0868 z m -4.07257,-12.39018 c -0.28219,-0.0361 -0.69032,-0.12247 -0.90695,-0.19228 -0.21663,-0.0696 -0.33693,-0.0961 -0.26733,-0.0589 0.10782,0.0578 0.0906,0.0589 -0.11596,0.008 -0.30353,-0.0752 -0.76039,-0.43311 -0.65548,-0.51343 0.0495,-0.038 0.0825,-0.0288 0.0899,0.0241 0.007,0.0524 0.0891,0.075 0.21725,0.06 0.13604,-0.016 0.23344,0.0185 0.28801,0.10188 0.0453,0.0693 0.2603,0.19072 0.47767,0.26976 1.01927,0.37051 2.63534,0.40539 3.87498,0.0837 0.524,-0.136 0.53351,-0.13677 0.18295,-0.0148 -0.76621,0.26671 -2.1345,0.36644 -3.18508,0.23219 z m 0.23633,-0.18947 c -0.48312,-0.0294 -1.34264,-0.25297 -1.33859,-0.3479 0.001,-0.0366 0.0362,-0.038 0.11098,-0.005 0.12424,0.0556 0.64052,0.12824 0.82228,0.11591 0.0671,-0.005 0.0816,0.0116 0.0321,0.0361 -0.25805,0.12773 1.50097,0.23741 2.18534,0.13628 0.3121,-0.0461 0.31332,-0.0454 0.036,0.0227 -0.30045,0.0735 -1.04867,0.0905 -1.84807,0.0415 z m -0.005,-0.15038 c -0.32159,-0.0621 -0.0796,-0.10786 0.26916,-0.0508 0.41297,0.0677 0.84699,0.0611 1.36101,-0.0201 0.55119,-0.0872 0.57818,-0.0479 0.0297,0.0431 -0.45976,0.0763 -1.3331,0.0909 -1.65979,0.0276 z m 0.43947,-0.0952 c 0,-0.0265 0.12203,-0.0363 0.27118,-0.0219 0.16185,0.0156 0.27873,0.003 0.2899,-0.0309 0.01,-0.0316 0.0638,-0.11541 0.119,-0.18665 0.0915,-0.11823 0.0717,-0.12669 -0.2268,-0.0979 -0.37428,0.0363 -0.77135,-0.087 -0.63355,-0.19689 0.0576,-0.0458 0.0233,-0.0547 -0.11329,-0.0289 -0.12761,0.0241 -0.1605,0.0195 -0.0943,-0.0132 0.0559,-0.0276 0.18817,-0.0402 0.29403,-0.0276 0.10685,0.0131 0.19249,-0.008 0.19249,-0.0472 0,-0.0827 -0.0297,-0.0843 -0.40417,-0.0231 -0.15736,0.0259 -0.28611,0.0364 -0.28611,0.0238 0,-0.0678 0.98373,-0.16816 1.43142,-0.14595 0.29364,0.0146 0.46283,0.008 0.41213,-0.0178 -0.17375,-0.0859 -1.48751,-0.0473 -1.93454,0.057 l -0.42673,0.0995 0.28235,-0.0997 c 0.58857,-0.20791 2.13774,-0.21623 2.79547,-0.0152 0.28595,0.0874 0.10539,0.11463 -0.27632,0.0415 -0.30142,-0.0577 -1.31689,0.0563 -1.48769,0.16696 -0.18671,0.12093 -0.0353,0.23423 0.24309,0.18162 0.11426,-0.0216 0.2948,0.007 0.47312,0.0734 0.1586,0.0596 0.23904,0.0796 0.17872,0.0447 -0.075,-0.0435 -0.0523,-0.0527 0.0722,-0.0291 0.13378,0.0253 0.0938,0.0631 -0.15083,0.14271 -0.38504,0.12542 -0.22766,0.14599 0.22233,0.0291 0.29352,-0.0763 0.29691,-0.076 0.0908,0.005 -0.34959,0.13748 -1.33384,0.22329 -1.33384,0.1163 z m 0.62865,-0.75082 c -0.10174,-0.0131 -0.2681,-0.0131 -0.36979,0 -0.10175,0.013 -0.0185,0.0229 0.18489,0.0229 0.20339,0 0.28659,-0.0103 0.1849,-0.0229 z m 3.06035,0.39192 c -0.0765,0 -0.14681,0.0254 -0.15638,0.0566 -0.01,0.0311 -0.0725,-0.0439 -0.13969,-0.16697 -0.1582,-0.28918 -0.78143,-0.556 -1.61792,-0.69267 -0.55652,-0.091 -0.82896,-0.10613 -1.662,-0.0926 -0.72077,0.0116 -0.92533,0.003 -0.73957,-0.0294 0.14122,-0.025 0.66324,-0.0447 1.16004,-0.0435 1.13646,0.002 2.08547,0.15918 2.65431,0.43755 0.21545,0.10544 0.34786,0.15093 0.29425,0.10119 -0.0608,-0.0564 -0.0461,-0.0735 0.039,-0.0451 0.26689,0.0886 0.47234,0.35621 0.44783,0.58362 -0.0211,0.19594 -0.0337,0.20517 -0.0829,0.0611 -0.032,-0.0931 -0.12058,-0.16967 -0.197,-0.16967 z m -0.53586,-0.008 c 0.0473,-0.0361 0.0823,-0.0254 0.0893,0.0273 0.006,0.0478 -0.0286,0.0744 -0.0777,0.0593 -0.0491,-0.0151 -0.0545,-0.054 -0.0122,-0.0866 z m -0.48593,-0.24498 c -0.002,0.0223 -0.1558,-0.0285 -0.34046,-0.11314 -0.48687,-0.22293 -1.1932,-0.32099 -2.15505,-0.29923 -0.58413,0.0131 -0.7205,0.007 -0.52377,-0.0276 0.4226,-0.0724 1.41547,-0.0526 1.97916,0.0394 0.28474,0.0465 0.56397,0.0806 0.62051,0.0761 0.14425,-0.0116 0.6503,0.21617 0.78059,0.3518 0.10551,0.10981 0.10186,0.1105 -0.1238,0.0228 -0.12785,-0.0499 -0.23459,-0.0722 -0.23718,-0.05 z m -5.28285,0.0187 c 0.0472,-0.0361 0.0823,-0.0254 0.0893,0.0273 0.006,0.0478 -0.0286,0.0744 -0.0777,0.0593 -0.0491,-0.0152 -0.0544,-0.054 -0.0121,-0.0867 z m 0.70391,-0.4255 c 0.19724,-0.0646 0.49173,-0.13835 0.65443,-0.16413 0.16271,-0.0259 0.0295,0.0261 -0.29583,0.1154 -0.69736,0.19125 -0.86332,0.21381 -0.3586,0.0488 z m 7.76054,1.33586 c 0.0536,-0.0264 0.0658,-0.0579 0.027,-0.0698 -0.0388,-0.0116 -0.10989,0.009 -0.15809,0.0484 -0.10004,0.0796 -0.0148,0.0937 0.13108,0.0216 z m 28.6042,-3.28095 c -0.007,-0.0527 -0.0422,-0.0634 -0.0893,-0.0273 -0.0427,0.0326 -0.0374,0.0718 0.0122,0.0866 0.0491,0.0151 0.0841,-0.0116 0.0777,-0.0593 z"
       id="path1363"
       inkscape:connector-curvature="0"
       clip-path="url(#clipPath1480)"
       transform="translate(0.15661992,0.3554905)" /><path
       style="fill:url(#radialGradient1386-5);fill-opacity:1;stroke:#000000;stroke-width:3;stroke-miterlimit:4;stroke-dasharray:none;stroke-opacity:1;paint-order:markers stroke fill"
       d="m 80.035702,119.45314 c -3.551376,-0.0987 -6.073646,-0.2404 -9.008791,-0.50652 -11.051739,-1.002 -20.600656,-3.53985 -25.769676,-6.84889 -2.902291,-1.85795 -4.215838,-3.51731 -4.401244,-5.55996 -0.119323,-1.31402 0.250748,-2.4463 1.202021,-3.67823 2.778018,-3.597639 10.088352,-6.709187 20.290126,-8.63622 10.821182,-2.044053 23.613207,-2.508022 35.523133,-1.28846 8.677609,0.88858 16.195889,2.692942 21.296339,5.111041 3.17005,1.502911 5.11876,3.115919 5.79988,4.800729 0.73366,1.81473 -0.50925,3.72941 -2.19506,3.38149 -0.5122,-0.10571 -1.14767,-0.51933 -2.18631,-1.42292 -0.5091,-0.44291 -0.9507,-0.7974 -0.98131,-0.78775 -0.0306,0.01 0.0209,0.2776 0.11446,0.59547 0.20287,0.68917 0.089,1.95404 -0.23859,2.65271 -1.19588,2.54977 -5.08039,4.99049 -10.79699,6.78399 -6.38373,2.00281 -14.703349,3.2406 -23.680855,3.52325 -2.182389,0.0686 -6.827789,0.0314 -8.889468,-0.0717 -6.590469,-0.32911 -12.827105,-1.1892 -17.787547,-2.45307 -5.57737,-1.42105 -9.998026,-3.58434 -11.806611,-5.77764 -0.753776,-0.91409 -0.884885,-1.26407 -0.882051,-2.35448 0.0024,-0.93728 0.03746,-1.07761 0.406853,-1.62773 0.79113,-1.17835 2.155982,-1.8964 3.062129,-1.61098 0.368295,0.11588 0.657564,0.44183 1.180212,1.32931 0.237247,0.40284 0.457112,0.74057 0.488578,0.75047 0.0315,0.01 0.09792,-0.18684 0.147567,-0.43724 0.625356,-3.15149 6.694088,-6.290722 15.464951,-7.999709 15.222511,-2.966079 34.868952,-1.704917 44.533732,2.858779 4.27763,2.01988 5.99053,4.62167 4.49681,6.83034 -0.75227,1.11234 -2.40448,2.18147 -3.71187,2.40186 -0.78611,0.13258 -1.03108,-0.10391 -1.03395,-0.99845 -9.8e-4,-0.38723 -0.0538,-0.72955 -0.11653,-0.7607 -0.0682,-0.0338 -0.22304,0.0788 -0.38447,0.27973 -0.93563,1.16494 -3.09834,2.46811 -5.74475,3.46155 -4.22362,1.58553 -9.864487,2.63205 -16.619988,3.08339 -1.796299,0.1201 -2.165154,0.12869 -5.550488,0.1299 -2.838372,0.001 -3.931847,-0.0163 -5.032438,-0.0804 -7.712613,-0.44865 -14.326058,-1.79078 -18.523334,-3.75915 -3.13601,-1.4707 -4.726943,-3.21262 -4.517708,-4.94655 0.100104,-0.82972 0.387415,-1.35157 1.132811,-2.05763 1.157418,-1.09632 3.146215,-2.06891 4.681183,-2.28921 0.331246,-0.0476 0.415161,-0.0429 0.591786,0.0331 0.277239,0.11942 0.258192,0.32142 -0.09025,0.95669 -0.161736,0.2949 -0.2945,0.56613 -0.295047,0.60272 -5.84e-4,0.0365 0.302381,-0.12977 0.673145,-0.36972 3.48679,-2.25666 10.080956,-3.826301 18.123537,-4.314034 1.726579,-0.104785 5.52604,-0.141828 7.346423,-0.07173 10.815405,0.416173 19.153938,2.780554 21.387268,6.064354 0.44741,0.65786 0.48823,2.08294 0.0781,2.72579 -0.82853,1.29857 -2.71131,2.45242 -5.2224,3.20053 -0.98908,0.29467 -1.69846,0.42701 -2.1745,0.40565 -0.613955,-0.0275 -0.524861,-0.18515 0.75931,-1.34325 0.0427,-0.0384 -0.34164,0.10834 -0.85398,0.32636 -4.396676,1.87047 -11.929246,2.95086 -19.178046,2.75067 -3.259468,-0.09 -5.40741,-0.27805 -8.284693,-0.72533 -7.981046,-1.24064 -12.679283,-3.92822 -11.611618,-6.64227 0.575765,-1.46365 2.807793,-2.85422 5.863925,-3.65328 1.683423,-0.44014 3.320772,-0.6582 3.547132,-0.47238 0.08879,0.0727 -0.486242,0.47918 -1.28804,0.90985 l -0.477388,0.25643 1.184323,-0.35533 c 8.314895,-2.494615 22.062402,-2.042113 28.656873,0.94324 1.240819,0.56172 2.444932,1.43417 2.914282,2.11159 1.17442,1.69512 -0.50606,3.63004 -4.233692,4.87475 -1.034543,0.34546 -2.696328,0.73013 -3.934973,0.91091 -0.999769,0.14588 -2.031502,0.19929 -2.199236,0.11373 -0.159267,-0.0812 0.02822,-0.18829 0.994356,-0.56805 0.440327,-0.17311 0.771122,-0.31472 0.735081,-0.31472 -0.036,0 -0.421886,0.0758 -0.857445,0.16815 -3.305919,0.70193 -7.808107,1.00259 -11.761885,0.78539 -6.501128,-0.35711 -11.59341,-1.80048 -13.336993,-3.7803 -0.369779,-0.4199 -0.405539,-0.53166 -0.408263,-1.27611 -0.0024,-0.70941 0.04171,-0.86764 0.339491,-1.21221 0.406536,-0.47043 1.371639,-1.13131 2.255187,-1.54429 0.835368,-0.39046 2.637348,-0.9526 3.840902,-1.19815 1.231346,-0.25123 3.093583,-0.47834 4.17824,-0.50957 0.728051,-0.021 0.862663,-0.012 0.952088,0.0609 0.08052,0.0661 -0.128348,0.15302 -0.921947,0.38349 -0.988275,0.28701 -1.004269,0.29507 -0.434051,0.21827 1.04149,-0.14025 2.672987,-0.29518 3.703773,-0.35174 1.419368,-0.0777 4.43265,-0.0306 5.91708,0.0928 4.955334,0.41171 9.016611,1.69366 10.352807,3.26782 0.392828,0.46279 0.474968,1.42968 0.162746,1.91537 -0.952964,1.48238 -4.296214,2.7026 -8.517378,3.10866 -1.819106,0.17499 -3.416728,0.1752 -3.523621,4.7e-4 -0.02993,-0.049 0.296446,-0.13868 0.962087,-0.26449 1.113922,-0.21051 1.103765,-0.21742 -0.17671,-0.12009 -1.189773,0.0906 -3.822194,0.088 -5.119491,-0.006 -4.890783,-0.35041 -8.655652,-1.55251 -9.693954,-3.09523 -0.45233,-0.67205 -0.171868,-1.56234 0.700842,-2.22465 1.185017,-0.89935 3.914077,-1.71319 6.785959,-2.02366 1.785668,-0.19307 4.984794,-0.16752 4.855558,0.0388 -0.02481,0.0396 -0.411463,0.11624 -0.859209,0.17038 l -0.814071,0.0983 1.480138,0.0294 c 0.814069,0.0162 1.88593,0.0631 2.381904,0.10415 4.082758,0.33861 7.183592,1.3931 7.987262,2.71621 0.662746,1.09111 -0.447879,2.21196 -2.941821,2.96896 -1.696997,0.51507 -3.823338,0.81835 -6.027779,0.85966 -2.693178,0.0505 -4.812694,-0.28256 -2.465224,-0.38737 l 0.769625,-0.0344 -1.258106,-0.0855 c -5.20708,-0.3536 -8.472204,-1.87672 -7.539346,-3.517 0.08648,-0.15214 0.457939,-0.47303 0.825334,-0.71306 0.829967,-0.54224 2.116792,-0.97069 3.679737,-1.22516 1.270634,-0.20689 1.777433,-0.25851 3.119893,-0.31771 1.601308,-0.0706 3.943342,0.0885 4.519217,0.3071 0.233852,0.0886 0.136022,0.11014 -0.705026,0.15467 -0.394642,0.0207 -0.591311,0.0403 -0.43703,0.0433 0.154267,0.002 0.779623,0.0812 1.389665,0.17355 3.232015,0.48967 5.147419,1.71183 4.413067,2.81585 -0.720838,1.08369 -3.206472,1.84205 -6.577515,2.0068 -1.721044,0.0842 -3.842543,-0.0842 -4.871189,-0.38661 -0.508063,-0.14932 -0.413797,-0.19103 0.356594,-0.15777 l 0.689615,0.0298 -0.874632,-0.179 c -2.190258,-0.44822 -3.337861,-1.10626 -3.344051,-1.91749 -0.0061,-0.88079 1.50276,-1.64985 3.950651,-2.01285 2.260612,-0.33522 5.236028,-0.21682 6.781069,0.26987 0.299462,0.0944 0.544469,0.18898 0.544469,0.21034 0,0.0512 -0.337205,0.0492 -0.782957,-0.005 -0.257705,-0.0309 -0.134125,0.0277 0.440534,0.2087 0.489952,0.15434 0.982302,0.37366 1.273627,0.5674 0.444996,0.29592 0.474919,0.34813 0.474919,0.82868 0,0.47785 -0.03138,0.53355 -0.460372,0.8159 -0.67452,0.44403 -1.500681,0.71207 -2.834918,0.91978 -1.080144,0.16815 -1.195076,0.17587 -2.617558,0.17587 -1.711034,0 -2.428356,-0.0776 -3.476682,-0.37587 -1.015702,-0.28906 -1.283198,-0.53331 -0.425742,-0.38875 0.347532,0.0585 0.320006,0.0381 -0.335855,-0.24918 -0.575899,-0.25231 -0.934159,-0.71142 -0.840853,-1.07755 0.24677,-0.96839 3.180162,-1.7025 6.083912,-1.52256 0.497434,0.0309 1.158586,0.0969 1.469226,0.14683 0.697266,0.11205 1.637081,0.41144 1.886199,0.60088 0.20196,0.1536 0.100227,0.23607 -0.181575,0.14729 -0.241284,-0.076 -0.486863,-0.0698 -0.284063,0.008 0.345561,0.13111 0.632215,0.48634 0.635183,0.78705 0.0036,0.37192 -0.426618,0.71152 -1.277386,1.00813 -1.697702,0.59195 -4.749566,0.60382 -6.443024,0.0251 -0.622533,-0.21274 -0.887378,-0.37416 -0.887378,-0.54082 0,-0.0921 0.0152,-0.093 0.275475,-0.0189 0.26751,0.0761 0.269529,0.0715 0.06994,-0.1676 -0.233877,-0.28012 -0.155922,-0.52039 0.268921,-0.82892 1.19516,-0.86799 5.123748,-1.02145 6.744335,-0.26345 0.463606,0.21684 0.764151,0.51772 0.576251,0.57691 -0.05133,0.0163 -0.176526,-0.007 -0.278236,-0.0503 -0.15568,-0.067 -0.176333,-0.0455 -0.130623,0.13541 0.14641,0.57983 -1.138151,1.10225 -2.97757,1.21093 -0.73901,0.0438 -1.892986,-0.0508 -2.658609,-0.21747 l -0.63179,-0.13762 0.518038,0.1439 c 1.03351,0.28708 2.833847,0.3508 4.111257,0.14553 0.657406,-0.10559 1.453535,-0.37196 1.747342,-0.58449 0.109105,-0.079 0.205646,-0.11205 0.214549,-0.0736 0.04634,0.20002 0.271912,-0.15754 0.281011,-0.44543 0.02323,-0.73485 -1.60143,-1.24259 -3.998259,-1.24949 -0.817391,-0.002 -1.143747,0.0223 -1.948111,0.147 -1.373792,0.21304 -2.13123,0.55125 -2.303743,1.02864 l -0.09499,0.26284 -0.102294,-0.18649 c -0.07238,-0.13191 -0.09439,-0.0774 -0.07529,0.18649 0.0315,0.4344 0.369608,0.6995 1.245931,0.97674 1.634234,0.51701 4.087927,0.58201 6.08817,0.16127 1.40993,-0.29658 2.135,-0.73703 2.142019,-1.30118 0.0024,-0.1667 0.02955,-0.25061 0.06094,-0.18649 0.102537,0.20887 0.306919,0.20353 0.229523,-0.007 -0.258958,-0.70115 -1.733038,-1.26967 -3.791226,-1.4622 -0.952259,-0.0891 -1.740701,-0.0891 -2.827024,9e-5 -1.134295,0.093 -1.980647,0.25449 -2.824712,0.53874 -1.161493,0.39111 -1.665433,0.90971 -1.399335,1.43997 0.147784,0.29447 0.07347,0.36134 -0.150753,0.13562 -0.148673,-0.14968 -0.152031,-0.14733 -0.07554,0.053 0.196499,0.51475 1.601698,1.10177 3.235251,1.35157 1.822754,0.2787 3.617217,0.27207 5.500764,-0.0205 3.267277,-0.50731 4.568077,-1.75936 2.872478,-2.76482 -0.524594,-0.31108 -0.284088,-0.2711 0.30046,0.0499 0.583623,0.32054 0.565499,0.19178 -0.02628,-0.18688 -1.294072,-0.828 -4.442063,-1.33968 -7.318434,-1.18954 -2.619491,0.13671 -5.020712,0.80242 -5.919719,1.64116 -0.196134,0.18298 -0.271706,0.3833 -0.263812,0.69934 0.01533,0.61258 0.488262,1.00008 1.934902,1.58519 l 0.403447,0.1632 -0.558032,-0.1632 c -0.306919,-0.0899 -0.753521,-0.25593 -0.99247,-0.3693 -0.557083,-0.26435 -0.560647,-0.19079 -0.0049,0.11277 0.95227,0.52088 2.369267,0.89584 4.266011,1.12881 0.858953,0.10547 1.238098,0.12371 2.63168,0.12641 1.338652,0.002 1.806212,-0.0162 2.629636,-0.10559 1.833373,-0.19912 3.217042,-0.55503 4.401061,-1.13206 0.822196,-0.40071 1.198762,-0.7801 1.290158,-1.2998 0.139112,-0.79094 -0.62212,-1.42085 -2.398313,-1.98458 -0.570961,-0.18123 -1.204625,-0.36576 -1.408142,-0.41009 -0.203518,-0.0444 -0.07334,-0.0324 0.289208,0.0265 0.362591,0.059 1.076203,0.23495 1.585825,0.39127 1.015264,0.31145 1.031502,0.30341 0.133809,-0.0661 -1.159778,-0.47737 -3.2267,-0.87883 -5.204087,-1.01078 -3.128834,-0.20879 -6.129331,0.0673 -8.34978,0.76848 -1.709294,0.53971 -2.600237,1.10188 -2.986437,1.88438 -0.639221,1.29514 2.059564,2.72471 6.094715,3.2284 0.479613,0.06 0.485099,0.0625 0.07395,0.0378 -0.70072,-0.0424 -2.500924,-0.33782 -3.188994,-0.52335 -0.471294,-0.12707 -0.583561,-0.14335 -0.451346,-0.0656 0.212762,0.12518 1.587539,0.47602 2.604252,0.6645 1.961161,0.36361 5.082027,0.50969 7.415036,0.34709 5.099616,-0.35545 8.491689,-1.74441 8.495326,-3.47859 0.0012,-0.6069 -0.343798,-1.06764 -1.176612,-1.57105 -1.502275,-0.90809 -4.139695,-1.5715 -7.259102,-1.82587 -0.610552,-0.0497 -0.937577,-0.0916 -0.726737,-0.093 0.717481,-0.006 2.673157,0.18165 3.847822,0.36684 0.644209,0.10163 1.171297,0.17843 1.171297,0.17081 0,-0.0456 -1.932457,-0.42853 -2.760733,-0.54682 -2.225095,-0.31782 -5.12797,-0.41431 -7.574097,-0.25178 -3.556716,0.23635 -6.732464,0.99607 -8.329515,1.99261 -0.852798,0.53216 -1.200829,1.01838 -1.278261,1.78585 -0.0838,0.83026 0.195003,1.29854 1.137969,1.91155 2.056255,1.33671 6.061265,2.17365 11.033956,2.30579 l 1.332121,0.0354 -1.406136,0.007 c -1.674251,0.008 -2.868038,-0.0479 -4.283551,-0.19875 -0.574707,-0.0613 -1.044918,-0.10164 -1.044918,-0.0898 0,0.0466 2.236345,0.34399 3.34584,0.44521 1.010849,0.0923 1.488188,0.10618 3.536769,0.10319 2.822072,-0.005 3.915657,-0.081 6.216554,-0.43716 4.042984,-0.62578 6.933695,-1.8321 7.624988,-3.18194 0.270805,-0.5288 0.118107,-1.58733 -0.301129,-2.08767 -1.449242,-1.72943 -5.259175,-2.90793 -10.950187,-3.38705 -1.022866,-0.0861 -4.676391,-0.11903 -6.14254,-0.0555 -0.596577,0.0259 -0.524838,0.0141 0.370034,-0.0609 1.204795,-0.10102 4.067579,-0.13963 5.698504,-0.0769 l 0.888085,0.0343 -0.567653,-0.0681 c -1.807063,-0.21674 -5.267239,-0.27969 -7.624818,-0.13874 -8.086308,0.48343 -13.8801,2.87817 -13.068,5.40139 0.748911,2.32685 4.868075,4.04603 11.445163,4.77675 3.450628,0.38335 7.696107,0.39695 11.015699,0.0353 1.680054,-0.18303 1.642652,-0.17995 1.24182,-0.10211 -1.425815,0.27726 -4.397607,0.52199 -6.956611,0.57287 -1.436993,0.0285 -1.598401,0.039 -1.036101,0.0673 1.201705,0.0602 4.3586,0.0426 5.715473,-0.0317 1.547363,-0.085 3.525712,-0.28632 4.82639,-0.49111 2.494513,-0.39277 5.104469,-1.07784 6.803498,-1.78579 1.248213,-0.52008 2.533283,-1.37239 3.109543,-2.06231 0.43255,-0.51787 0.4635,-0.60878 0.47436,-1.39325 0.011,-0.77696 -0.019,-0.8755 -0.40126,-1.32813 -1.37706,-1.63052 -4.220215,-2.99303 -7.982238,-3.82523 -1.265185,-0.27988 -3.636933,-0.65031 -5.181791,-0.809319 -3.68785,-0.37961 -7.91916,-0.396737 -11.769536,-0.04769 -1.25672,0.113919 -4.058079,0.514679 -5.030261,0.719589 -0.752937,0.15871 -0.563335,0.073 0.241358,-0.10907 2.356605,-0.533316 5.63641,-0.956852 8.540951,-1.102952 0.7606,-0.03828 0.661785,-0.04164 -0.752609,-0.02592 -7.29603,0.08114 -14.158107,1.531582 -17.652619,3.731362 -2.345586,1.47653 -2.845549,3.41658 -1.265612,4.91097 1.645279,1.55618 5.274489,3.08159 9.446575,3.97052 8.290751,1.76647 20.101569,1.47375 27.598525,-0.68397 0.863077,-0.24842 1.00967,-0.27834 0.668828,-0.13644 -0.633469,0.26372 -2.889677,0.87805 -4.355607,1.18601 -1.528619,0.32112 -3.104737,0.57004 -4.935022,0.77942 -1.627981,0.18622 -1.451479,0.20119 0.55982,0.0474 6.968324,-0.53255 12.643908,-1.97795 15.957498,-4.0638 1.9447,-1.22417 2.8542,-2.71086 2.46878,-4.03548 -0.56549,-1.94342 -2.66353,-3.35746 -7.17222,-4.8339 -6.081084,-1.99131 -13.531626,-2.861217 -21.837896,-2.549729 -3.155095,0.118348 -5.605515,0.347235 -8.509837,0.794991 -3.594569,0.554161 -6.889043,1.402915 -9.217162,2.374578 -1.20876,0.5045 -1.210182,0.46453 -0.0036,-0.10317 2.308123,-1.086015 5.541487,-2.022166 9.070314,-2.626123 0.734047,-0.125602 1.286191,-0.228741 1.226992,-0.229157 -0.30777,-0.0028 -2.284963,0.267092 -3.939449,0.536361 -7.517597,1.223527 -12.789557,3.497849 -14.451876,6.234589 -1.268738,2.08875 0.155289,4.44848 3.804715,6.30477 1.933478,0.98346 5.483626,2.07976 9.291772,2.86933 3.032828,0.62883 7.44885,1.21547 10.878958,1.44524 2.107901,0.14121 6.573355,0.17768 9.065059,0.074 10.009629,-0.41637 18.34631,-2.25351 23.08212,-5.08651 0.42864,-0.25642 0.7808,-0.45236 0.78255,-0.43541 0.005,0.0474 -0.93277,0.72538 -1.47261,1.06483 -2.03497,1.27954 -5.00993,2.39118 -8.95946,3.34779 -0.666994,0.16157 0.029,0.0485 1.48045,-0.24043 5.30505,-1.05617 9.53543,-2.60006 12.03564,-4.39253 3.47422,-2.49073 3.71303,-5.27729 0.66899,-7.8064 -1.7551,-1.45823 -5.26445,-3.088239 -8.42134,-3.911546 -5.5848,-1.456497 -11.383112,-2.326243 -18.258435,-2.738737 -2.760162,-0.165605 -6.828007,-0.203136 -9.569668,-0.0884 -10.065605,0.421602 -18.964147,2.172809 -24.527954,4.827013 -1.709928,0.8157 -3.570121,2.07529 -4.333884,2.93459 -0.45508,0.512 -0.397998,0.23114 0.07225,-0.35561 1.429233,-1.78327 3.917993,-3.267824 7.801673,-4.65373 l 1.306516,-0.46624 -1.123117,0.292241 c -2.344076,0.609961 -5.131302,1.594052 -6.897326,2.435229 -6.152575,2.93058 -7.726649,6.73778 -4.181634,10.11411 4.598643,4.37983 17.087642,7.58608 31.894191,8.18804 2.555866,0.10379 7.071822,0.10451 9.546838,0.001 12.037885,-0.50205 21.97891,-2.43187 28.59858,-5.5517 3.44197,-1.62221 5.55692,-3.42982 6.40993,-5.4785 l 0.18443,-0.44291 0.017,0.39658 c 0.0321,0.74624 -0.57664,2.01524 -1.40899,2.937 -1.4301,1.58367 -4.10218,3.19731 -7.53084,4.54776 -0.64829,0.25534 -1.98345,0.71604 -2.96702,1.02375 -6.30977,1.97403 -14.39126,3.22273 -23.229167,3.58926 -1.729875,0.0717 -6.582101,0.12655 -7.918697,0.0894 z m 4.075217,-12.76793 c 0.282373,-0.0372 0.69077,-0.12628 0.907534,-0.19816 0.216776,-0.0717 0.337156,-0.0992 0.267509,-0.0607 -0.10789,0.0595 -0.09062,0.0607 0.116038,0.008 0.30372,-0.0776 0.760881,-0.44633 0.655899,-0.52908 -0.0495,-0.039 -0.08259,-0.0298 -0.09001,0.0249 -0.0073,0.054 -0.08915,0.0773 -0.217383,0.0618 -0.136133,-0.0163 -0.233598,0.019 -0.288199,0.10511 -0.04537,0.0715 -0.260467,0.19654 -0.477985,0.278 -1.019922,0.38179 -2.637043,0.41774 -3.877489,0.0863 -0.524338,-0.14015 -0.533862,-0.14094 -0.18307,-0.0152 0.766706,0.27482 2.135888,0.37762 3.187144,0.23925 z m -0.23648,-0.19525 c 0.483433,-0.0303 1.343505,-0.26068 1.339455,-0.35853 -0.0012,-0.0378 -0.03625,-0.039 -0.111051,-0.006 -0.124322,0.0572 -0.640937,0.13218 -0.822817,0.11947 -0.06714,-0.006 -0.08162,0.012 -0.03211,0.0372 0.258217,0.13163 -1.501946,0.24463 -2.186756,0.14042 -0.312306,-0.0475 -0.313523,-0.0468 -0.036,0.0233 0.300642,0.0757 1.049347,0.0931 1.849271,0.0426 z m 0.0049,-0.15497 c 0.321807,-0.0642 0.07967,-0.1111 -0.269333,-0.0522 -0.413239,0.0697 -0.847531,0.063 -1.361884,-0.0207 -0.551548,-0.0899 -0.578563,-0.0493 -0.02968,0.0445 0.460067,0.0785 1.333969,0.0936 1.660872,0.0285 z m -0.439753,-0.0982 c 0,-0.0274 -0.122109,-0.0375 -0.271354,-0.0226 -0.161955,0.0162 -0.278906,0.005 -0.290084,-0.0317 -0.0097,-0.0324 -0.06385,-0.11887 -0.11908,-0.19234 -0.09159,-0.12185 -0.07176,-0.13057 0.226945,-0.1008 0.374523,0.0375 0.771851,-0.0897 0.633967,-0.2029 -0.05765,-0.0473 -0.02335,-0.0563 0.113363,-0.0298 0.127691,0.0249 0.160605,0.0202 0.09439,-0.0136 -0.05595,-0.0285 -0.18829,-0.0414 -0.29422,-0.0285 -0.106916,0.0134 -0.19262,-0.008 -0.19262,-0.0486 0,-0.0851 0.02968,-0.0869 0.404432,-0.0237 0.157467,0.0266 0.286302,0.0376 0.286302,0.0244 0,-0.0699 -0.98437,-0.1733 -1.432346,-0.1504 -0.293831,0.015 -0.463133,0.008 -0.4124,-0.0184 0.173864,-0.0885 1.488469,-0.0488 1.935789,0.0587 l 0.427007,0.10248 -0.28253,-0.10272 c -0.588951,-0.21423 -2.139124,-0.22282 -2.797284,-0.0156 -0.286132,0.0902 -0.105457,0.11804 0.276498,0.0427 0.301615,-0.0594 1.317743,0.0578 1.488662,0.17205 0.18683,0.12466 0.03528,0.24138 -0.243255,0.18716 -0.114336,-0.0221 -0.294986,0.007 -0.473422,0.0755 -0.158709,0.0614 -0.239194,0.082 -0.178838,0.0461 0.07505,-0.0448 0.0523,-0.0543 -0.07225,-0.0299 -0.133859,0.0261 -0.0939,0.065 0.150935,0.14706 0.385287,0.12923 0.227808,0.15045 -0.22248,0.0299 -0.293709,-0.0785 -0.297103,-0.0783 -0.09086,0.006 0.349819,0.14168 1.334712,0.23011 1.334712,0.11982 z m -0.629054,-0.77372 c 0.101807,-0.0134 0.268275,-0.0134 0.370034,0 0.101807,0.0134 0.01849,0.0235 -0.185017,0.0235 -0.203518,0 -0.286775,-0.0108 -0.185017,-0.0235 z m -3.062337,0.40388 c 0.0765,0 0.14691,0.0262 0.156482,0.0583 0.0097,0.032 0.07249,-0.0452 0.139782,-0.17206 0.158307,-0.29802 0.781935,-0.57296 1.61897,-0.71379 0.556875,-0.0937 0.829492,-0.10942 1.663073,-0.0953 0.72124,0.0121 0.925937,0.005 0.740056,-0.0303 -0.141314,-0.0257 -0.66367,-0.0461 -1.160799,-0.0448 -1.137191,0.002 -2.086821,0.16405 -2.656031,0.45089 -0.215584,0.10846 -0.348079,0.15552 -0.294438,0.10415 0.06081,-0.0581 0.0461,-0.0758 -0.03904,-0.0467 -0.267059,0.0912 -0.472645,0.36707 -0.448124,0.60141 0.02116,0.20194 0.03369,0.21145 0.08295,0.063 0.03199,-0.096 0.120661,-0.17484 0.197132,-0.17484 z m 0.536211,-0.008 c -0.04732,-0.0372 -0.08234,-0.0262 -0.0894,0.0282 -0.0061,0.0491 0.02859,0.0767 0.07773,0.0611 0.04914,-0.0154 0.05449,-0.0558 0.01216,-0.0893 z m 0.486243,-0.25245 c 0.0024,0.0229 0.155897,-0.0294 0.340684,-0.1166 0.487179,-0.22972 1.193969,-0.33077 2.156445,-0.30835 0.58451,0.0136 0.720971,0.007 0.524107,-0.0285 -0.422871,-0.0746 -1.416388,-0.0542 -1.980441,0.0406 -0.284927,0.048 -0.564332,0.0832 -0.620916,0.0783 -0.144342,-0.0121 -0.650716,0.22277 -0.781095,0.36254 -0.105578,0.11312 -0.101929,0.11396 0.123884,0.0233 0.127935,-0.0514 0.234741,-0.0745 0.237332,-0.0515 z m 5.286276,0.0194 c -0.04719,-0.0372 -0.08234,-0.0262 -0.0894,0.0282 -0.0061,0.0491 0.02859,0.0767 0.07773,0.0611 0.04914,-0.0156 0.05449,-0.0557 0.01216,-0.0894 z m -0.70437,-0.43847 c -0.197363,-0.0666 -0.492045,-0.14257 -0.654851,-0.16913 -0.16282,-0.0266 -0.02956,0.0269 0.29602,0.11887 0.697813,0.19707 0.863879,0.22034 0.358831,0.0503 z m -7.765572,1.37658 c -0.05364,-0.0272 -0.0658,-0.0596 -0.027,-0.072 0.0388,-0.012 0.109956,0.01 0.158184,0.0498 0.100105,0.0821 0.01484,0.0966 -0.131158,0.0221 z m -28.622763,-3.3809 c 0.0073,-0.0543 0.0422,-0.0653 0.0894,-0.0283 0.04269,0.0336 0.03746,0.0739 -0.01216,0.0893 -0.04914,0.0154 -0.08417,-0.012 -0.07773,-0.061 z"
       id="path1363-6"
       inkscape:connector-curvature="0"
       clip-path="url(#clipPath1452)"
       transform="translate(0.31323982,0.4999915)" /></g><g
     inkscape:groupmode="layer"
     id="layer4"
     inkscape:label="bunny "
     style="display:inline"
     sodipodi:insensitive="true"><g
       id="g990"
       transform="matrix(-1.0504106,0,0,1.0504106,265.40503,-9.7634769)"
       style="fill:#ffffff"><g
         id="g1092"
         style="display:inline;fill:#ffffff"
         transform="matrix(-1.2986737,0,0,1.1689032,289.8927,-38.402735)"><path
           style="fill:#ffffff;fill-opacity:1;stroke:#000000;stroke-width:1.38102555;stroke-miterlimit:4;stroke-dasharray:none;stroke-opacity:1"
           d="m 178.83686,163.77002 c 0.371,-0.17951 0.83231,-0.82299 1.07715,-1.50246 0.40765,-1.13134 0.57947,-2.34838 0.58526,-4.14552 l 0.005,-1.63136 -0.43047,-1.16525 c -0.23677,-0.64089 -0.6261,-1.94131 -0.86519,-2.88983 -1.05753,-4.19536 -1.35862,-5.18063 -2.028,-6.63627 -0.4836,-1.05164 -0.849,-1.46392 -1.65325,-1.86532 -1.37829,-0.6879 -1.93788,-1.02715 -2.28271,-1.38388 -0.22304,-0.23076 -0.30383,-0.35938 -0.20284,-0.32297 0.42827,0.15438 0.66041,0.14826 1.19104,-0.0314 1.57973,-0.53496 3.45796,-2.58248 4.44395,-4.84448 0.87064,-1.99737 0.12868,-3.35028 -2.10747,-3.84283 -1.05323,-0.23199 -2.19569,-0.29806 -3.23386,-0.187 l -0.88101,0.0942 -0.43073,-0.50389 c -0.2369,-0.27713 -0.70588,-1.00008 -1.04219,-1.60654 -1.41461,-2.55093 -2.05605,-3.40198 -3.03208,-4.02285 -0.24497,-0.15582 -1.19694,-1.07269 -2.11548,-2.03749 -2.35638,-2.47501 -2.997,-3.11916 -3.95157,-3.97332 -1.45002,-1.29751 -2.94821,-2.2807 -4.40502,-2.89081 -0.29996,-0.12563 -1.01735,-0.45904 -1.5942,-0.74091 -2.95283,-1.44287 -5.56567,-2.1048 -8.60028,-2.1788 -1.36005,-0.0332 -1.97256,-0.0898 -2.68497,-0.24817 -1.32754,-0.29516 -4.21587,-0.28755 -6.75436,0.0178 -3.09878,0.37274 -5.18454,0.29111 -6.80948,-0.2665 -0.60903,-0.209 -0.68991,-0.31986 -0.60648,-0.8313 0.14182,-0.86929 0.6328,-1.58151 2.96358,-4.29892 2.10848,-2.45825 2.8998,-3.49307 3.74251,-4.89417 1.75399,-2.91619 2.31046,-5.68017 1.7134,-8.510417 -0.29617,-1.403934 -0.73739,-2.163195 -1.25707,-2.163195 -0.35363,0 -0.98993,0.532077 -1.54894,1.295216 -1.48184,2.022953 -1.54262,2.087605 -1.78447,1.898075 -0.68862,-0.539661 -1.38718,-0.705814 -2.39784,-0.570323 -1.54789,0.207514 -3.5858,1.247937 -4.59888,2.347894 -0.42842,0.46516 -1.23557,1.72946 -1.91352,2.9973 -0.69832,1.30592 -1.35755,2.77275 -2.68177,5.96702 l -1.00426,2.42249 -0.86527,0.28876 c -2.78844,0.93057 -4.90788,2.26098 -6.54764,4.11005 -0.72468,0.81718 -1.2086,1.5069 -1.59192,2.26892 -0.14186,0.28199 -0.46046,0.85297 -0.70801,1.26886 -1.39369,2.34137 -1.75484,5.48049 -0.82055,7.13212 0.4306,0.76121 1.38592,1.29229 2.33002,1.2953 1.05495,0.004 2.27861,0.54644 3.07345,1.36401 1.119,1.15102 0.78334,2.0608 -0.8908,2.4144 -1.27462,0.26921 -2.23649,0.61737 -4.04129,1.46278 l -1.82105,0.85302 -1.63615,0.0611 c -1.73137,0.0647 -2.07703,0.14506 -2.50643,0.58292 -0.24376,0.24856 -0.47746,0.81347 -0.55385,1.33879 -0.0685,0.47101 0.0558,0.77352 0.5382,1.30944 0.92717,1.03011 2.30365,1.18055 4.59471,0.50218 0.4983,-0.14755 1.39685,-0.41507 1.99677,-0.5945 1.32684,-0.39685 2.6409,-0.71926 2.93147,-0.71926 0.11824,0 0.21497,0.0517 0.21497,0.11497 0,0.0632 -0.44829,0.59809 -0.99619,1.18856 -1.18682,1.27902 -1.43706,1.73794 -1.43706,2.63548 0,2.42726 2.38699,2.46841 6.62852,0.11427 1.93774,-1.07549 3.50914,-1.5085 7.25779,-1.99993 2.6048,-0.34147 3.9394,-0.57995 4.98425,-0.89061 0.91673,-0.27257 1.52086,-0.28888 3.26182,-0.0881 4.25281,0.49058 10.37816,1.94271 13.40254,3.17732 0.62458,0.25497 1.61388,0.78555 2.60106,1.395 1.85852,1.14738 3.35204,1.96473 4.23326,2.31668 0.67614,0.27005 0.75228,0.33117 2.65956,2.13482 1.69231,1.60037 2.42943,2.19995 3.38449,2.75301 1.37722,0.79754 1.66456,0.86208 3.9855,0.89516 1.62969,0.0233 2.15793,0.064 2.76995,0.21395 1.43478,0.35145 2.53529,0.96143 3.45021,1.91231 1.18429,1.23083 1.77756,2.50852 2.86665,6.17365 0.99094,3.33482 1.48898,4.41822 2.50625,5.45187 0.76938,0.78177 1.33722,0.99128 1.92102,0.70882 z"
           id="path1115"
           inkscape:connector-curvature="0" /></g></g></g><g
     inkscape:groupmode="layer"
     id="layer3"
     inkscape:label="txt"
     style="display:inline"
     sodipodi:insensitive="true"><text
   xml:space="preserve"
   style="font-style:normal;font-variant:normal;font-weight:bold;font-stretch:normal;font-size:12.22812653px;line-height:1.25;font-family:Nevis;-inkscape-font-specification:'Nevis, Bold';font-variant-ligatures:normal;font-variant-caps:normal;font-variant-numeric:normal;font-feature-settings:normal;text-align:start;letter-spacing:0px;word-spacing:0px;writing-mode:lr-tb;text-anchor:start;display:inline;fill:#666666;fill-opacity:1;stroke:none;stroke-width:0.28534162;stroke-miterlimit:4;stroke-dasharray:none;stroke-opacity:1;paint-order:markers stroke fill"
   x="74.497772"
   y="172.48836"
   id="text859"><tspan
     sodipodi:role="line"
     id="tspan857"
     x="74.497772"
     y="172.48836"
     style="font-style:normal;font-variant:normal;font-weight:bold;font-stretch:normal;font-size:12.22812653px;font-family:Nevis;-inkscape-font-specification:'Nevis, Bold';font-variant-ligatures:normal;font-variant-caps:normal;font-variant-numeric:normal;font-feature-settings:normal;text-align:start;writing-mode:lr-tb;text-anchor:start;fill:#666666;stroke:none;stroke-width:0.28534162;stroke-miterlimit:4;stroke-dasharray:none;stroke-opacity:1;paint-order:markers stroke fill"><tspan
       style="font-style:normal;font-variant:normal;font-weight:bold;font-stretch:normal;font-size:12.22812653px;line-height:1.25;font-family:Nevis;-inkscape-font-specification:'Nevis, Bold';font-variant-ligatures:normal;font-variant-caps:normal;font-variant-numeric:normal;font-feature-settings:normal;text-align:start;writing-mode:lr-tb;text-anchor:start;fill:#666666;stroke:none;stroke-width:0.28534162;stroke-miterlimit:4;stroke-dasharray:none;stroke-opacity:1;paint-order:markers stroke fill"
       id="tspan861">https://</tspan></tspan></text>




<text
   xml:space="preserve"
   style="font-style:normal;font-variant:normal;font-weight:bold;font-stretch:normal;font-size:21.56479645px;line-height:1.25;font-family:Nevis;-inkscape-font-specification:'Nevis, Bold';font-variant-ligatures:normal;font-variant-caps:normal;font-variant-numeric:normal;font-feature-settings:normal;text-align:start;letter-spacing:0px;word-spacing:0px;writing-mode:lr-tb;text-anchor:start;display:inline;fill:#ff0000;fill-opacity:1;stroke:#000000;stroke-width:3.03200006;stroke-miterlimit:4;stroke-dasharray:none;stroke-opacity:1;paint-order:markers stroke fill"
   x="120.79507"
   y="173.20824"
   id="text859-7"><tspan
     sodipodi:role="line"
     id="tspan857-2"
     x="120.79507"
     y="173.20824"
     style="font-style:normal;font-variant:normal;font-weight:bold;font-stretch:normal;font-size:21.56479645px;font-family:Nevis;-inkscape-font-specification:'Nevis, Bold';font-variant-ligatures:normal;font-variant-caps:normal;font-variant-numeric:normal;font-feature-settings:normal;text-align:start;writing-mode:lr-tb;text-anchor:start;fill:#ff0000;fill-opacity:1;stroke:#000000;stroke-width:3.03200006;stroke-miterlimit:4;stroke-dasharray:none;stroke-opacity:1;paint-order:markers stroke fill"><tspan
   style="fill:#ffffff;fill-opacity:1;stroke:#000000;stroke-width:3.03200006;stroke-miterlimit:4;stroke-dasharray:none;stroke-opacity:1"
   id="tspan1259">rabbithole</tspan>.help</tspan></text>




<text
   xml:space="preserve"
   style="font-style:normal;font-variant:normal;font-weight:bold;font-stretch:normal;font-size:9.88582706px;line-height:1.25;font-family:Consolas;-inkscape-font-specification:'Consolas, Bold';font-variant-ligatures:normal;font-variant-caps:normal;font-variant-numeric:normal;font-feature-settings:normal;text-align:start;letter-spacing:0px;word-spacing:0px;writing-mode:lr-tb;text-anchor:start;display:inline;fill:#000000;fill-opacity:1;stroke:none;stroke-width:1.07197499;stroke-miterlimit:4;stroke-dasharray:none;stroke-opacity:1;paint-order:markers stroke fill"
   x="81.864273"
   y="190.53543"
   id="text1066"><tspan
     sodipodi:role="line"
     id="tspan1064"
     x="81.864273"
     y="190.53543"
     style="font-style:normal;font-variant:normal;font-weight:bold;font-stretch:normal;font-size:9.88582706px;font-family:Consolas;-inkscape-font-specification:'Consolas, Bold';font-variant-ligatures:normal;font-variant-caps:normal;font-variant-numeric:normal;font-feature-settings:normal;text-align:start;writing-mode:lr-tb;text-anchor:start;fill:#000000;stroke:none;stroke-width:1.07197499;stroke-miterlimit:4;stroke-dasharray:none;stroke-opacity:1;paint-order:markers stroke fill">a guide to question everything... </tspan></text>




</g></svg>